Coordinates
version=1
nRows=11
nColumns=42
inDegrees=yes

Units are S.I. units (second, meters, Newtons, ...)
If the header above contains a line with 'inDegrees', this indicates whether rotational values are in degrees (yes) or radians (no).

endheader
time	pelvis_tilt	pelvis_list	pelvis_rotation	pelvis_tx	pelvis_ty	pelvis_tz	hip_flexion_r	hip_adduction_r	hip_rotation_r	knee_angle_r	knee_adduction_r	knee_angle_r_beta	ankle_angle_r	subtalar_angle_r	mtp_angle_r	hip_flexion_l	hip_adduction_l	hip_rotation_l	knee_angle_l	knee_adduction_l	knee_angle_l_beta	ankle_angle_l	subtalar_angle_l	mtp_angle_l	lumbar_extension	lumbar_bending	lumbar_rotation	arm_flex_r	arm_add_r	arm_rot_r	elbow_flex_r	pro_sup_r	wrist_flex_r	wrist_dev_r	arm_flex_l	arm_add_l	arm_rot_l	elbow_flex_l	pro_sup_l	wrist_flex_l	wrist_dev_l
      6.14000000	      6.86666188	     -4.11404393	     -6.01630606	      0.52286135	      0.94258534	     -0.14742835	     15.22290843	     -7.19574672	    -19.64034659	     29.98040322	      3.09249710	      0.52325675	      5.75010322	     15.81139858	     -7.50032685	      2.58738755	     -3.32448654	    -22.60180837	     29.87656369	     -2.41226745	      0.52144441	     17.31793972	      0.66471661	     -7.50032685	    -19.91394364	      2.78595299	     -0.99841563	      7.60478234	    -11.41617735	      5.47128859	     42.31504253	     90.00000001	      0.00000000	      0.00000000	    -14.12794070	     -9.99293580	     -2.39217560	     51.63457104	     90.00000001	      0.00000000	      0.00000000
      6.15000000	      6.82054340	     -3.99892568	     -6.01826250	      0.52452624	      0.94211539	     -0.14712993	     15.48877345	     -7.22945470	    -20.01487239	     29.61456829	      3.25805203	      0.51687172	      5.53472824	     15.94370551	     -7.50032616	      2.56353670	     -3.21075983	    -22.59633180	     29.93391737	     -2.43033063	      0.52244542	     17.40416469	      0.63686493	     -7.50032616	    -19.89344820	      2.68539462	     -1.02746320	      7.58284608	    -11.46818464	      5.46058891	     42.29885757	     90.00000001	      0.00000000	      0.00000000	    -14.07884966	     -9.96066953	     -2.37599169	     51.61614536	     90.00000001	      0.00000000	      0.00000000
      6.16000000	      6.72599914	     -3.93019413	     -5.81103843	      0.52631727	      0.94158212	     -0.14701994	     15.69730609	     -7.26267073	    -21.17100021	     29.21729745	      3.13443095	      0.50993804	      4.14468743	     17.05427061	     -7.50032218	      2.70566077	     -3.11330108	    -22.22851846	     30.18145487	     -2.50247814	      0.52676576	     17.73191712	      0.51794325	     -7.50032218	    -19.78827536	      2.70552330	     -1.22575878	      7.46740608	    -11.50341969	      5.43772691	     42.27999090	     90.00000001	      0.00000000	      0.00000000	    -13.89590676	     -9.94873118	     -2.31559294	     51.35341608	     90.00000001	      0.00000000	      0.00000000
      6.17000000	      6.79294187	     -3.78286145	     -5.72197539	      0.52835986	      0.94119637	     -0.14672628	     15.84964242	     -7.41883622	    -22.44510282	     29.25832042	      2.87587436	      0.51065402	      3.87580597	     18.53496448	     -7.50031454	      2.48899036	     -2.97510298	    -22.02517611	     30.17448960	     -2.36635537	      0.52664419	     17.86774485	      0.32852849	     -7.50031454	    -19.84346627	      2.59071476	     -1.31678523	      7.40301381	    -11.52600559	      5.38901324	     42.26189632	     90.00000001	      0.00000000	      0.00000000	    -13.71292291	     -9.92945430	     -2.21850215	     50.98230479	     90.00000001	      0.00000000	      0.00000000
      6.18000000	      6.81594227	     -3.61591878	     -5.63734084	      0.53041889	      0.94069932	     -0.14645765	     15.98233313	     -7.52016091	    -23.09321216	     29.27687454	      2.82063617	      0.51097786	      3.76566882	     18.97199231	     -7.50030754	      2.36170762	     -2.79479267	    -21.92515801	     30.21234478	     -2.35859303	      0.52730489	     17.95406340	      0.23901461	     -7.50030754	    -19.82292400	      2.47011941	     -1.41779501	      7.36484501	    -11.58034450	      5.33258967	     42.28036944	     90.00000001	      0.00000000	      0.00000000	    -13.61704647	     -9.92448293	     -2.15449001	     50.93163080	     90.00000001	      0.00000000	      0.00000000
      6.19000000	      6.80823926	     -3.50860085	     -5.60370773	      0.53251624	      0.94018943	     -0.14607604	     16.09212916	     -7.44473522	    -23.15130001	     29.26791829	      2.87873022	      0.51082154	      3.75981443	     18.95016470	     -7.50030713	      2.25197988	     -2.71156473	    -21.91752278	     30.26398405	     -2.34748776	      0.52820617	     17.95122379	      0.24904593	     -7.50030713	    -19.78643265	      2.41736517	     -1.47116724	      7.33926806	    -11.61031415	      5.32229451	     42.28182299	     90.00000001	      0.00000000	      0.00000000	    -13.58150665	     -9.91300037	     -2.14723397	     50.94784589	     90.00000001	      0.00000000	      0.00000000
      6.20000000	      6.86924669	     -3.26929848	     -5.42379071	      0.53483247	      0.93972491	     -0.14591764	     16.08681881	     -7.63065732	    -23.82876217	     29.37292944	      2.77621133	      0.51265433	      3.63153448	     18.69517978	     -7.50030529	      2.08210803	     -2.45019947	    -21.84332320	     30.29601774	     -2.37587156	      0.52876526	     18.12483351	      0.22947450	     -7.50030529	    -19.79145147	      2.24123279	     -1.58327188	      7.20561958	    -11.67862594	      5.29528265	     42.22670379	     90.00000001	      0.00000000	      0.00000000	    -13.46145238	     -9.89780576	     -2.11292343	     50.91225325	     90.00000001	      0.00000000	      0.00000000
      6.21000000	      6.96821704	     -3.09823874	     -5.24980104	      0.53723303	      0.93927785	     -0.14565371	     16.07321643	     -7.71574353	    -24.40851917	     29.68872064	      2.61003337	      0.51816593	      3.46599914	     18.42336066	     -7.50030208	      1.81583351	     -2.26407776	    -21.63083309	     30.26321139	     -2.32944382	      0.52819268	     18.32928946	      0.24495101	     -7.50030208	    -19.81709548	      2.14900230	     -1.78716033	      7.16859430	    -11.69431234	      5.25486775	     42.20975039	     90.00000001	      0.00000000	      0.00000000	    -13.35454482	     -9.91606151	     -2.04247432	     50.78944492	     90.00000001	      0.00000000	      0.00000000
      6.22000000	      7.04571198	     -2.91077358	     -5.07989268	      0.53974108	      0.93881242	     -0.14538286	     16.01528852	     -7.77172181	    -24.75669862	     29.93181496	      2.46445588	      0.52240872	      3.48716622	     18.09827724	     -7.50029865	      1.57899449	     -2.07098494	    -21.47041246	     30.25735571	     -2.29818678	      0.52809048	     18.47685264	      0.25798168	     -7.50029865	    -19.81542273	      2.04821701	     -1.93978544	      7.09091030	    -11.71716030	      5.20578653	     42.16565663	     90.00000001	      0.00000000	      0.00000000	    -13.25396981	     -9.92625352	     -1.96226284	     50.69278909	     90.00000001	      0.00000000	      0.00000000
      6.23000000	      7.13204761	     -2.72124733	     -4.90326290	      0.54232509	      0.93833974	     -0.14509056	     15.92080612	     -7.79062248	    -24.97728282	     30.17181561	      2.27802520	      0.52659752	      3.59251910	     17.76429011	     -7.50029675	      1.33999692	     -1.88927695	    -21.36552091	     30.28342574	     -2.29693895	      0.52854549	     18.58277170	      0.27784362	     -7.50029675	    -19.81605272	      1.94014287	     -2.07074472	      7.00783538	    -11.74381751	      5.17067136	     42.12259576	     90.00000001	      0.00000000	      0.00000000	    -13.15575571	     -9.93763587	     -1.91589078	     50.65141755	     90.00000001	      0.00000000	      0.00000000
      6.24000000	      7.23668802	     -2.51485481	     -4.67661632	      0.54503770	      0.93786969	     -0.14484725	     15.78819715	     -7.86214842	    -25.22810897	     30.51114573	      2.11164313	      0.53251995	      3.85426716	     17.12638852	     -7.50029340	      1.04734823	     -1.67669890	    -21.17313851	     30.23221068	     -2.25842323	      0.52765162	     18.76432921	      0.33659098	     -7.50029340	    -19.81721365	      1.83907701	     -2.27581863	      6.92581112	    -11.75731781	      5.10274350	     42.06772564	     90.00000001	      0.00000000	      0.00000000	    -13.05407199	     -9.95931386	     -1.81813914	     50.56221888	     90.00000001	      0.00000000	      0.00000000
